<svg xmlns="http://www.w3.org/2000/svg" xmlns:xlink="http://www.w3.org/1999/xlink" width="100" height="100" viewBox="0 0 100 100">
  <defs>
    <filter id="Ellipse_10" x="0" y="0" width="100" height="100" filterUnits="userSpaceOnUse">
      <feOffset dy="8" input="SourceAlpha"/>
      <feGaussianBlur stdDeviation="7.5" result="blur"/>
      <feFlood flood-color="#df71a3"/>
      <feComposite operator="in" in2="blur"/>
      <feComposite in="SourceGraphic"/>
    </filter>
    <linearGradient id="linear-gradient" x1="0.5" y1="1" x2="0.5" gradientUnits="objectBoundingBox">
      <stop offset="0" stop-color="#ae6a9f"/>
      <stop offset="1" stop-color="#f574a4"/>
    </linearGradient>
  </defs>
  <g id="Group_939" data-name="Group 939" transform="translate(6.5 -691.5)">
    <g transform="matrix(1, 0, 0, 1, -6.5, 691.5)" filter="url(#Ellipse_10)">
      <circle id="Ellipse_10-2" data-name="Ellipse 10" cx="27.5" cy="27.5" r="27.5" transform="translate(22.5 14.5)" fill="#df71a3" opacity="0.5"/>
    </g>
    <circle id="Ellipse_6" data-name="Ellipse 6" cx="27.5" cy="27.5" r="27.5" transform="translate(16 706)" fill="url(#linear-gradient)"/>
    <g id="Group_162" data-name="Group 162" transform="translate(31.569 722.425)">
      <path id="Path_1783" data-name="Path 1783" d="M-921.566,277.977c-.747,0-1.458,0-2.169,0a.748.748,0,0,1-.253-.026.362.362,0,0,1-.252-.427.363.363,0,0,1,.4-.325c.644,0,1.288,0,1.932,0h.327c.006-.1.015-.184.015-.267q0-1.4,0-2.809a1.676,1.676,0,0,0-1.67-1.7,1.67,1.67,0,0,0-1.739,1.659c-.013,1.606,0,3.213-.005,4.819a.984.984,0,0,1-1.029,1.039.949.949,0,0,1-.921-.784,6.386,6.386,0,0,1-.035-.77c0-.126,0-.252,0-.405-.44,0-.851-.012-1.259.011-.072,0-.181.15-.2.243-.129.8-.241,1.611-.355,2.418-.092.646-.175,1.293-.274,1.938a.218.218,0,0,0,.166.284c1.775.686,3.545,1.381,5.321,2.063a.633.633,0,0,0,.412,0c1.823-.679,3.64-1.372,5.462-2.053.171-.064.221-.143.2-.318q-.309-2.154-.606-4.31c-.023-.162-.078-.26-.264-.288a.373.373,0,0,1-.321-.449.383.383,0,0,1,.43-.319.967.967,0,0,1,.91.835q.289,2.034.572,4.07.372,2.652.744,5.3c.031.219.051.44.081.705.2,0,.408,0,.619,0a3.322,3.322,0,0,1,.36.01.361.361,0,0,1,.348.377.376.376,0,0,1-.338.392,1.162,1.162,0,0,1-.232.006h-14.3a.986.986,0,0,1-1.057-1.237c.248-1.756.489-3.513.736-5.269q.3-2.163.619-4.324a.969.969,0,0,1,1.01-.87c.283,0,.567,0,.85,0,.366,0,.366,0,.366-.353,0-.885,0-1.769,0-2.654a3.617,3.617,0,0,1,3.307-3.641,3.639,3.639,0,0,1,4.026,2.939,3.278,3.278,0,0,1,.071.664q.009,2.358,0,4.716a1.009,1.009,0,0,1-.928,1.071,1,1,0,0,1-1.075-1C-921.574,278.631-921.566,278.322-921.566,277.977Zm-7.621,5.607c-.2,1.4-.391,2.769-.577,4.136-.049.364-.012.392.365.392h12.291c.338,0,.381-.05.337-.367-.108-.78-.213-1.561-.323-2.341-.085-.6-.175-1.2-.266-1.813-.1.037-.185.064-.263.094-1.731.655-3.464,1.306-5.192,1.969a1.411,1.411,0,0,1-1.095,0c-.9-.365-1.805-.707-2.708-1.059C-927.462,284.261-928.3,283.93-929.187,283.585Zm3.427-7.244h.007c0-.781-.022-1.563,0-2.343a2.465,2.465,0,0,1,3.082-2.278,2.46,2.46,0,0,1,1.891,2.5c.005,1.494,0,2.987,0,4.481,0,.069-.022.15.008.2.044.079.135.2.188.191a.423.423,0,0,0,.226-.188c.033-.047.009-.133.009-.2,0-1.468-.023-2.936.007-4.4a2.9,2.9,0,0,0-3.008-2.983,2.874,2.874,0,0,0-2.855,2.872c-.008,1.519,0,3.039,0,4.558,0,.172,0,.36.228.355s.213-.2.213-.368Q-925.759,277.538-925.76,276.341Z" transform="translate(930.575 -266.734)" fill="#fff"/>
      <path id="Path_1784" data-name="Path 1784" d="M-689.773,203.018a3.9,3.9,0,0,1,.656-5.325,3.834,3.834,0,0,1,4.982.105,3.888,3.888,0,0,1,.558,5.183c.058.062.118.132.182.2q.865.866,1.731,1.729c.149.148.261.3.163.523s-.27.237-.473.223c-.376-.026-.752-.045-1.17-.069.024.4.061.783.062,1.164a.67.67,0,0,1-.135.414c-.143.164-.372.112-.582-.1-.754-.751-1.527-1.486-2.249-2.267-.287-.311-.6-.255-.934-.258-.067,0-.143.085-.2.143q-1.2,1.19-2.387,2.385c-.168.169-.362.274-.564.11a.565.565,0,0,1-.169-.4c0-.384.046-.769.076-1.193-.431.023-.846.051-1.262.064a.364.364,0,0,1-.4-.436.773.773,0,0,1,.2-.318c.566-.576,1.138-1.145,1.71-1.715A2.409,2.409,0,0,1-689.773,203.018Zm6.159-2.313a3.074,3.074,0,0,0-3.072-3.081,3.074,3.074,0,0,0-3.071,3.062,3.083,3.083,0,0,0,3.078,3.082A3.08,3.08,0,0,0-683.614,200.7Zm-5.607,2.933-1.187,1.176c.163-.012.339-.029.515-.037a.389.389,0,0,1,.464.44c0,.189,0,.379,0,.487l1.37-1.377Zm5.1-.019-1.2.71,1.4,1.431c-.008-.163-.014-.332-.025-.5-.021-.334.136-.5.472-.483.174.008.349.022.515.033Z" transform="translate(704.213 -196.825)" fill="#fff"/>
      <path id="Path_1785" data-name="Path 1785" d="M-928.245,207.46a.516.516,0,0,1,.529.36,2.149,2.149,0,0,0,1.506,1.454.517.517,0,0,1,.4.507.509.509,0,0,1-.365.507,2.638,2.638,0,0,0-1.565,1.639.519.519,0,0,1-.537.393.521.521,0,0,1-.491-.42,2.28,2.28,0,0,0-1.555-1.615.523.523,0,0,1-.4-.508.542.542,0,0,1,.412-.527c.193-.07.391-.129.576-.216a1.757,1.757,0,0,0,1-1.144A.51.51,0,0,1-928.245,207.46Zm-.026,3.588,1.166-1.227-1.14-1.1a2.826,2.826,0,0,1-1.247,1.074A3.1,3.1,0,0,1-928.271,211.048Z" transform="translate(930.722 -206.912)" fill="#fff"/>
      <path id="Path_1786" data-name="Path 1786" d="M-634.823,440.631a.48.48,0,0,1-.515-.358,2.287,2.287,0,0,0-1.563-1.634.493.493,0,0,1-.365-.5.519.519,0,0,1,.4-.507,5.386,5.386,0,0,0,.753-.319,1.608,1.608,0,0,0,.771-.958c.1-.329.266-.471.527-.477s.421.13.544.458a2.053,2.053,0,0,0,1.363,1.3.547.547,0,0,1,.454.49c.02.265-.092.416-.4.552a2.539,2.539,0,0,0-1.466,1.561A.517.517,0,0,1-634.823,440.631Zm0-1.313,1.111-1.166a6.623,6.623,0,0,1-.575-.45,6.837,6.837,0,0,1-.479-.55l-1.145,1.008Z" transform="translate(652.39 -423.554)" fill="#fff"/>
      <path id="Path_1787" data-name="Path 1787" d="M-817.072,497.933c.359,0,.719,0,1.078,0a.4.4,0,0,1,.434.376.394.394,0,0,1-.416.4q-1.117.01-2.235,0a.377.377,0,0,1-.416-.391.385.385,0,0,1,.423-.382C-817.826,497.93-817.449,497.933-817.072,497.933Z" transform="translate(824.403 -482.413)" fill="#fff"/>
      <path id="Path_1788" data-name="Path 1788" d="M-609.628,612.545a.4.4,0,0,1-.378-.406.391.391,0,0,1,.384-.374.388.388,0,0,1,.39.392A.391.391,0,0,1-609.628,612.545Z" transform="translate(626.536 -590.38)" fill="#fff"/>
      <path id="Path_1789" data-name="Path 1789" d="M-615.423,250.224c.33-.352.631-.692.953-1.009a1.206,1.206,0,0,1,.436-.258.37.37,0,0,1,.476.2.336.336,0,0,1-.11.478,4.036,4.036,0,0,0-1.183,1.19c-.075.093-.133.2-.207.294a.375.375,0,0,1-.617.034c-.114-.116-.217-.243-.321-.368a.383.383,0,0,1-.035-.536.373.373,0,0,1,.55-.051A.28.28,0,0,0-615.423,250.224Z" transform="translate(632.339 -246.246)" fill="#fff"/>
    </g>
  </g>
</svg>
