<svg xmlns="http://www.w3.org/2000/svg" xmlns:xlink="http://www.w3.org/1999/xlink" width="100" height="100" viewBox="0 0 100 100">
  <defs>
    <filter id="Ellipse_5" x="0" y="0" width="100" height="100" filterUnits="userSpaceOnUse">
      <feOffset dy="8" input="SourceAlpha"/>
      <feGaussianBlur stdDeviation="7.5" result="blur"/>
      <feFlood flood-color="#a11"/>
      <feComposite operator="in" in2="blur"/>
      <feComposite in="SourceGraphic"/>
    </filter>
    <linearGradient id="linear-gradient" x1="0.5" y1="1" x2="0.5" gradientUnits="objectBoundingBox">
      <stop offset="0" stop-color="#480e0e"/>
      <stop offset="1" stop-color="#de1212"/>
    </linearGradient>
  </defs>
  <g id="Group_940" data-name="Group 940" transform="translate(6.5 -804.5)">
    <g transform="matrix(1, 0, 0, 1, -6.5, 804.5)" filter="url(#Ellipse_5)">
      <circle id="Ellipse_5-2" data-name="Ellipse 5" cx="27.5" cy="27.5" r="27.5" transform="translate(22.5 14.5)" fill="#a11" opacity="0.5"/>
    </g>
    <circle id="Ellipse_13" data-name="Ellipse 13" cx="27.5" cy="27.5" r="27.5" transform="translate(16 819)" fill="url(#linear-gradient)"/>
    <g id="Group_163" data-name="Group 163" transform="translate(29.449 831.21)">
      <path id="Path_1790" data-name="Path 1790" d="M-801.961,197.693a2.788,2.788,0,0,1-.836,1.19c-1.54,1.49-3.067,2.994-4.607,4.485a2.045,2.045,0,0,0-.617,1.954q.6,3.41,1.166,6.826a1.546,1.546,0,0,1-2.085,1.7,8.689,8.689,0,0,1-1.023-.509.422.422,0,0,1-.2-.569.425.425,0,0,1,.6-.16c.252.121.5.255.743.387a.734.734,0,0,0,.864-.033.759.759,0,0,0,.259-.8c-.4-2.283-.794-4.567-1.174-6.853a2.738,2.738,0,0,1,.868-2.533q2.428-2.356,4.846-4.72a.822.822,0,0,0,.335-.807.711.711,0,0,0-.641-.575l-3.371-.494c-.663-.1-1.327-.189-1.99-.288-.3-.045-.471-.236-.441-.477s.227-.4.538-.353c1.1.15,2.193.312,3.289.471.682.1,1.363.2,2.045.3a1.547,1.547,0,0,1,1.39,1.225.285.285,0,0,0,.043.07Z" transform="translate(830.584 -186.563)" fill="#fff"/>
      <path id="Path_1791" data-name="Path 1791" d="M-1022.168,291.6c.987,0,1.975.005,2.963,0a1.017,1.017,0,0,1,.69.246c.61.5,1.22,1.01,1.842,1.5a1.072,1.072,0,0,1,.407,1.23c-.544,2.088-1.068,4.182-1.613,6.27-.058.223-.006.316.189.4.238.1.464.237.692.362.294.162.385.38.262.612s-.362.279-.653.127c-1.261-.66-2.526-1.315-3.778-1.991a2.093,2.093,0,0,0-2.124,0c-1.971,1.051-3.952,2.081-5.927,3.124a1.59,1.59,0,0,1-1.743,0,1.467,1.467,0,0,1-.688-1.539c.38-2.3.777-4.588,1.173-6.88a1.987,1.987,0,0,0-.458-1.742c-.226-.258-.238-.486-.046-.665s.446-.137.677.117a2.9,2.9,0,0,1,.625,2.635c-.393,2.2-.762,4.4-1.139,6.6a.717.717,0,0,0,.278.743.677.677,0,0,0,.763.07c1.065-.554,2.125-1.116,3.191-1.669.161-.084.1-.189.069-.3q-.528-1.982-1.053-3.964c-.205-.773-.4-1.548-.619-2.318a1.028,1.028,0,0,1,.4-1.2c.652-.5,1.3-1,1.936-1.516a1.08,1.08,0,0,1,.719-.246C-1024.143,291.6-1023.156,291.6-1022.168,291.6Zm-3.071.833c-.673.527-1.31,1.038-1.962,1.529a.376.376,0,0,0-.157.469c.379,1.391.745,2.786,1.116,4.179.182.682.367,1.362.555,2.061.3-.155.559-.317.841-.434.255-.106.3-.251.254-.515-.174-.924-.322-1.852-.475-2.78-.053-.323.076-.541.329-.582s.444.117.5.439c.078.459.151.918.229,1.377.081.481.165.961.255,1.483a2.878,2.878,0,0,1,3.064-.011c.109-.652.209-1.248.309-1.844.06-.358.111-.718.18-1.074a.413.413,0,0,1,.474-.371.416.416,0,0,1,.353.486,1.8,1.8,0,0,1-.029.193c-.156.927-.316,1.853-.462,2.782-.015.1.015.265.082.3.34.2.7.378,1.057.566a.75.75,0,0,0,.059-.123c.532-2.082,1.065-4.164,1.585-6.249a.392.392,0,0,0-.125-.316c-.576-.488-1.164-.96-1.75-1.436-.068-.055-.145-.1-.243-.161-.04.118-.066.195-.091.272a2.24,2.24,0,0,1-1.927,1.676,11.366,11.366,0,0,1-2.062,0,2.029,2.029,0,0,1-1.274-.636A2.521,2.521,0,0,1-1025.238,292.432Zm.892.018a1.446,1.446,0,0,0,1.341,1.106c.51.02,1.023.022,1.534,0a1.456,1.456,0,0,0,1.348-1.105Z" transform="translate(1036.534 -276.339)" fill="#fff"/>
      <path id="Path_1792" data-name="Path 1792" d="M-1086.792,73.747a1.6,1.6,0,0,1,1.437.957q.923,1.879,1.851,3.756c.4.8.793,1.6,1.183,2.4a1.982,1.982,0,0,0,1.4,1.134c.326.075.479.273.422.516s-.27.364-.6.3a2.7,2.7,0,0,1-1.961-1.55q-.866-1.752-1.729-3.5-.667-1.352-1.334-2.7a.728.728,0,0,0-.676-.46.721.721,0,0,0-.682.45l-.111.225c-.938,1.9-1.905,3.792-2.8,5.713a3.2,3.2,0,0,1-2.734,1.946c-2.115.261-4.221.6-6.331.9a1.9,1.9,0,0,0-.3.062.714.714,0,0,0-.361,1.128,2.408,2.408,0,0,0,.247.265q1.74,1.7,3.482,3.4a2.784,2.784,0,0,1,.2.2.418.418,0,0,1,.008.581.425.425,0,0,1-.582.016c-.029-.023-.056-.049-.083-.075-1.254-1.223-2.517-2.438-3.76-3.672a1.563,1.563,0,0,1,.564-2.63,3.218,3.218,0,0,1,.546-.112q3.33-.485,6.661-.965a1.948,1.948,0,0,0,1.547-1.142q1.515-3.081,3.035-6.16A1.6,1.6,0,0,1-1086.792,73.747Z" transform="translate(1101.112 -73.747)" fill="#fff"/>
      <path id="Path_1793" data-name="Path 1793" d="M-936.112,187.364a2.978,2.978,0,0,1-2.963-2.941,2.977,2.977,0,0,1,2.944-2.959,2.974,2.974,0,0,1,2.976,2.954A2.976,2.976,0,0,1-936.112,187.364Zm.007-.842a2.125,2.125,0,0,0,2.11-2.118,2.125,2.125,0,0,0-2.129-2.1,2.127,2.127,0,0,0-2.111,2.119A2.128,2.128,0,0,0-936.105,186.522Z" transform="translate(950.423 -173.921)" fill="#fff"/>
    </g>
  </g>
</svg>
