<svg xmlns="http://www.w3.org/2000/svg" xmlns:xlink="http://www.w3.org/1999/xlink" width="110" height="110" viewBox="0 0 110 110">
  <defs>
    <linearGradient id="linear-gradient" x1="0.5" y1="1" x2="0.5" gradientUnits="objectBoundingBox">
      <stop offset="0" stop-color="#2fc145"/>
      <stop offset="1" stop-color="#b4ff4e"/>
    </linearGradient>
    <filter id="Ellipse_6" x="0" y="0" width="110" height="110" filterUnits="userSpaceOnUse">
      <feOffset dy="8" input="SourceAlpha"/>
      <feGaussianBlur stdDeviation="7.5" result="blur"/>
      <feFlood flood-color="#26d555" flood-opacity="0.341"/>
      <feComposite operator="in" in2="blur"/>
      <feComposite in="SourceGraphic"/>
    </filter>
  </defs>
  <g id="Group_932" data-name="Group 932" transform="translate(-208.5 -118.5)">
    <g id="shoes" transform="translate(230.854 133)">
      <g transform="matrix(1, 0, 0, 1, -22.35, -14.5)" filter="url(#Ellipse_6)">
        <circle id="Ellipse_6-2" data-name="Ellipse 6" cx="32.5" cy="32.5" r="32.5" transform="translate(22.5 14.5)" fill="url(#linear-gradient)"/>
      </g>
    </g>
    <g id="Group_156" data-name="Group 156" transform="translate(-0.775 1)">
      <path id="Path_1763" data-name="Path 1763" d="M-467.984,442.509a3.3,3.3,0,0,0,.576-3.863c1.153-1.406,1.053-2.248-.474-3.491.173-.164.35-.319.513-.487a1.482,1.482,0,0,0,.174-1.956.749.749,0,0,1-.069-.415,5.246,5.246,0,0,0,.075-.857A6.467,6.467,0,0,0-470.8,426.4a11.952,11.952,0,0,0-3.468-1.191c-.407-.08-.57-.239-.61-.645-.181-1.827-.385-3.652-.581-5.477-.038-.355-.084-.709-.117-1.065a.543.543,0,0,1,.553-.665c.105-.01.211,0,.317,0h14.958c.814,0,.946.16.855.974q-.751,6.722-1.495,13.446-.559,5.027-1.119,10.054c-.064.575-.206.7-.789.7q-2.658,0-5.317,0C-467.718,442.525-467.822,442.516-467.984,442.509Z" transform="translate(738.111 -259.668)" fill="#fff"/>
      <path id="Path_1764" data-name="Path 1764" d="M-642.1,529.757h-9.8c-.826,0-1.083-.324-.932-1.146a5.669,5.669,0,0,1,3.374-4.181,13.019,13.019,0,0,1,4.224-1.157,22.878,22.878,0,0,1,8.5.442,8.489,8.489,0,0,1,3.523,1.743,5.322,5.322,0,0,1,1.826,3.335.745.745,0,0,1-.833.962Q-637.164,529.759-642.1,529.757Zm-4.062-4.029a.479.479,0,0,0,.49-.463.5.5,0,0,0-.478-.518.485.485,0,0,0-.491.5A.474.474,0,0,0-646.166,525.727Zm-1.492,1.867a.474.474,0,0,0-.43-.491.473.473,0,0,0-.547.437.468.468,0,0,0,.422.526A.5.5,0,0,0-647.658,527.594Zm11.385.474a.493.493,0,0,0,.556-.421.478.478,0,0,0-.436-.547.484.484,0,0,0-.531.459A.48.48,0,0,0-636.273,528.068Zm-7.409-.543a.46.46,0,0,0-.484-.425.464.464,0,0,0-.481.5.456.456,0,0,0,.48.466A.493.493,0,0,0-643.681,527.525Zm1.991-2.241a.5.5,0,0,0-.5-.534.463.463,0,0,0-.474.477.47.47,0,0,0,.492.5A.465.465,0,0,0-641.69,525.284Zm3.526-.538a.5.5,0,0,0-.513.518.459.459,0,0,0,.491.457.468.468,0,0,0,.475-.511A.472.472,0,0,0-638.164,524.746Zm-2.011,2.349a.476.476,0,0,0-.491.467.483.483,0,0,0,.481.511.48.48,0,0,0,.486-.5A.472.472,0,0,0-640.175,527.094Z" transform="translate(901.333 -357)" fill="#fff"/>
      <path id="Path_1765" data-name="Path 1765" d="M-643.764,690.5h9.8c.812,0,1.074.261,1.067,1.061a2.383,2.383,0,0,1-2.32,2.4,7.746,7.746,0,0,1-.832.033c-5.171,0-10.341.01-15.512-.01a5.083,5.083,0,0,1-1.665-.268,2.228,2.228,0,0,1-1.421-2.552.751.751,0,0,1,.728-.661c.118-.009.238,0,.357,0Z" transform="translate(903 -511.136)" fill="#fff"/>
      <path id="Path_1766" data-name="Path 1766" d="M-650.132,653.491c-3.228,0-6.455.007-9.682-.01a2.4,2.4,0,0,1-1.063-.237.969.969,0,0,1-.026-1.774,2.237,2.237,0,0,1,.978-.258c.872-.035,1.746-.028,2.618,0a2.378,2.378,0,0,1,.838.2c.791.335,1.571.7,2.349,1.059a1.5,1.5,0,0,0,1.336,0c.767-.357,1.532-.72,2.313-1.042a2.712,2.712,0,0,1,.993-.217c3.029-.016,6.058-.021,9.087,0a2.331,2.331,0,0,1,1.153.324.918.918,0,0,1,.016,1.61,2.272,2.272,0,0,1-1.148.329C-643.624,653.5-646.878,653.491-650.132,653.491Z" transform="translate(909.244 -474.947)" fill="#fff"/>
      <path id="Path_1767" data-name="Path 1767" d="M-479.3,382.174h-8.486c-.785,0-1-.266-.822-1.026.265-1.153.265-1.154,1.429-1.154l16.1,0c.7,0,.82.094.984.761.054.218.112.436.15.656a.6.6,0,0,1-.592.756c-.131.011-.264,0-.4,0Z" transform="translate(750.153 -225.278)" fill="#fff"/>
      <path id="Path_1768" data-name="Path 1768" d="M-652.9,617.792a2.981,2.981,0,0,1-2.449-1.393.668.668,0,0,1,.057-.6.411.411,0,0,1,.631-.053,6.206,6.206,0,0,1,.489.463,1.776,1.776,0,0,0,2.473.189,4.936,4.936,0,0,1,.909-.558,2.311,2.311,0,0,1,2.548.416c.879.754,1.339.746,2.22.006a2.271,2.271,0,0,1,3.165,0c.873.735,1.331.733,2.222-.01a2.378,2.378,0,0,1,2.969-.2c.223.142.43.309.652.451a1.748,1.748,0,0,0,2.191-.195c.2-.188.388-.4.6-.571a.409.409,0,0,1,.631.058.7.7,0,0,1,.052.6,2.958,2.958,0,0,1-3.2,1.3,3.777,3.777,0,0,1-.824-.376c-.2-.107-.368-.257-.554-.383a1.383,1.383,0,0,0-1.911.1,2.3,2.3,0,0,1-2.249.663,3.283,3.283,0,0,1-1.094-.6,1.379,1.379,0,0,0-2.106-.013,2.31,2.31,0,0,1-3.316-.009,1.417,1.417,0,0,0-2.039-.093A3.152,3.152,0,0,1-652.9,617.792Z" transform="translate(903.656 -442.207)" fill="#fff"/>
      <path id="Path_1769" data-name="Path 1769" d="M-466.125,278.167c-.7,0-.7,0-.844-.671s-.305-1.367-.427-2.057a.817.817,0,0,0-.468-.631q-2.9-1.56-5.78-3.14c-.523-.285-.544-.359-.253-.891.4-.727.4-.728,1.143-.322,2.03,1.1,4.058,2.215,6.093,3.311a1.089,1.089,0,0,1,.608.816c.193,1.012.419,2.018.627,3.028.113.547.1.556-.461.557Z" transform="translate(736.733 -124.183)" fill="#fff"/>
    </g>
  </g>
</svg>
