<svg xmlns="http://www.w3.org/2000/svg" xmlns:xlink="http://www.w3.org/1999/xlink" width="100" height="100" viewBox="0 0 100 100">
  <defs>
    <linearGradient id="linear-gradient" x1="0.5" y1="1" x2="0.5" gradientUnits="objectBoundingBox">
      <stop offset="0" stop-color="#76baff"/>
      <stop offset="1" stop-color="#4efff8"/>
    </linearGradient>
    <filter id="Ellipse_8" x="0" y="0" width="100" height="100" filterUnits="userSpaceOnUse">
      <feOffset dy="8" input="SourceAlpha"/>
      <feGaussianBlur stdDeviation="7.5" result="blur"/>
      <feFlood flood-color="#62aaff" flood-opacity="0.341"/>
      <feComposite operator="in" in2="blur"/>
      <feComposite in="SourceGraphic"/>
    </filter>
  </defs>
  <g id="Group_935" data-name="Group 935" transform="translate(6.5 -237.5)">
    <g transform="matrix(1, 0, 0, 1, -6.5, 237.5)" filter="url(#Ellipse_8)">
      <circle id="Ellipse_8-2" data-name="Ellipse 8" cx="27.5" cy="27.5" r="27.5" transform="translate(22.5 14.5)" fill="url(#linear-gradient)"/>
    </g>
    <circle id="Ellipse_5" data-name="Ellipse 5" cx="27.5" cy="27.5" r="27.5" transform="translate(16 252)" fill="url(#linear-gradient)"/>
    <g id="Group_155" data-name="Group 155" transform="translate(29.048 263.896)">
      <path id="Path_1760" data-name="Path 1760" d="M-563.725,364.039c-.3.246-.582.473-.861.7a1.527,1.527,0,0,0-.159.163c-.365.407-.364.434-.058.875a6.916,6.916,0,0,0,1.421,1.637,3.726,3.726,0,0,0,.723.424c.665.3.757.712.221,1.216a9.26,9.26,0,0,1-.853.641,3.015,3.015,0,0,0-.347.264.4.4,0,0,0-.066.543,2.052,2.052,0,0,0,.452.481c.272.2.574.359.863.537.144.089.318.168.3.373s-.192.3-.362.367-.366.083-.534.159a1.511,1.511,0,0,0-.313.256,2.065,2.065,0,0,0,.327.2,1.253,1.253,0,0,1,.654.447.335.335,0,0,1-.182.556.688.688,0,0,1-.1.03c-.608.126-.777.486-.7,1.11.038.3.109.6.135.9a1.921,1.921,0,0,1-.039.573.644.644,0,0,1-.614.536,1.57,1.57,0,0,1-.4-.014,12.688,12.688,0,0,0-3.878-.1,7.017,7.017,0,0,0-3.651,1.539c-.278.238-.519.519-.792.795a3.708,3.708,0,0,1-1.238-1.02,8.757,8.757,0,0,1-1.476-2.87,16.95,16.95,0,0,1-.714-3.144c-.005-.04-.016-.079-.027-.135-.02.022-.034.03-.037.042a9.108,9.108,0,0,0-.1,4.449,5.92,5.92,0,0,0,2.807,3.665,10.115,10.115,0,0,0,3.769,1.309c.652.1,1.31.152,1.945.223-.016.007-.064.03-.114.049a15.321,15.321,0,0,1-6.092,1.061A14.845,14.845,0,0,1-579.9,381.3a17.538,17.538,0,0,1-5.022-3.72,10.2,10.2,0,0,1-1.758-2.756,17.073,17.073,0,0,1-1.517-5.472,14.113,14.113,0,0,1,2.024-9.218,11.415,11.415,0,0,1,1.946-2.435,25.462,25.462,0,0,1,2.268-1.8,16.074,16.074,0,0,1,4.042-2.119,13.317,13.317,0,0,1,3.419-.73,16.724,16.724,0,0,1,6.417.917c.456.145.914.289,1.359.465a3.51,3.51,0,0,1,2.38,3.376,9.307,9.307,0,0,1-.512,3.1c-.177.575-.381,1.143-.551,1.72a4.491,4.491,0,0,0-.172.894,1.659,1.659,0,0,0,.086.616.316.316,0,0,0,.423.2l1.193-.282C-563.827,364.055-563.782,364.049-563.725,364.039ZM-574.352,380.5l.014-.032-.165-.146a11.549,11.549,0,0,1-3.266-4.481,7.155,7.155,0,0,1-.441-3.756,8.3,8.3,0,0,1,1.581-3.633,54.549,54.549,0,0,1,3.668-4.39c1.022-1.134,2.038-2.276,3.024-3.442a7.713,7.713,0,0,0,1.433-2.4,2.86,2.86,0,0,0-.406-2.856,8.688,8.688,0,0,0-.874-.907.931.931,0,0,0-.345-.2,11.969,11.969,0,0,0-5.952-.488,13.285,13.285,0,0,0-7.889,4.1,14.287,14.287,0,0,0-2.907,4.6,14.591,14.591,0,0,0-.891,5,6.25,6.25,0,0,0,.029,1.052,19.17,19.17,0,0,0,.939,3.611,12.641,12.641,0,0,0,2.481,4.146,12.289,12.289,0,0,0,5.581,3.431,18.035,18.035,0,0,0,3.206.662C-575.139,380.428-574.745,380.46-574.352,380.5Z" transform="translate(588.287 -353.013)" fill="#fff"/>
      <path id="Path_1761" data-name="Path 1761" d="M-404.809,385.445a17.062,17.062,0,0,1,1.937,2.652,17.682,17.682,0,0,1,2.283,5.762,12.661,12.661,0,0,1-1.85,9.559,19.066,19.066,0,0,1-4.18,4.517.074.074,0,0,1-.061.016c.033-.041.065-.084.1-.124a19.086,19.086,0,0,0,4.767-9.527,16.125,16.125,0,0,0-.662-8.12,20.8,20.8,0,0,0-2.239-4.577C-404.747,385.551-404.778,385.5-404.809,385.445Z" transform="translate(430.267 -381.233)" fill="#fff"/>
      <path id="Path_1762" data-name="Path 1762" d="M-533.078,379.191v-2.349h3.4V373.43h2.31v3.4h3.416v2.345h-3.41v3.4h-2.307v-3.383Z" transform="translate(540.248 -370.778)" fill="#fff"/>
    </g>
  </g>
</svg>
