<svg xmlns="http://www.w3.org/2000/svg" xmlns:xlink="http://www.w3.org/1999/xlink" width="110" height="110" viewBox="0 0 110 110">
  <defs>
    <linearGradient id="linear-gradient" x1="0.5" y1="1" x2="0.5" gradientUnits="objectBoundingBox">
      <stop offset="0" stop-color="#76baff"/>
      <stop offset="1" stop-color="#4efff8"/>
    </linearGradient>
    <filter id="Ellipse_5" x="0" y="0" width="110" height="110" filterUnits="userSpaceOnUse">
      <feOffset dy="8" input="SourceAlpha"/>
      <feGaussianBlur stdDeviation="7.5" result="blur"/>
      <feFlood flood-color="#62aaff" flood-opacity="0.341"/>
      <feComposite operator="in" in2="blur"/>
      <feComposite in="SourceGraphic"/>
    </filter>
  </defs>
  <g id="Group_931" data-name="Group 931" transform="translate(-102.5 -117.5)">
    <g transform="matrix(1, 0, 0, 1, 102.5, 117.5)" filter="url(#Ellipse_5)">
      <circle id="Ellipse_5-2" data-name="Ellipse 5" cx="32.5" cy="32.5" r="32.5" transform="translate(22.5 14.5)" fill="url(#linear-gradient)"/>
    </g>
    <g id="Group_155" data-name="Group 155" transform="translate(727.287 -207.013)">
      <path id="Path_1760" data-name="Path 1760" d="M-557.979,366.619c-.372.3-.718.584-1.062.868a1.931,1.931,0,0,0-.2.2c-.45.5-.449.535-.072,1.08a8.534,8.534,0,0,0,1.753,2.02,4.6,4.6,0,0,0,.892.523c.821.372.934.879.273,1.5a11.455,11.455,0,0,1-1.052.791,3.735,3.735,0,0,0-.429.325.488.488,0,0,0-.081.671,2.538,2.538,0,0,0,.558.593c.336.246.709.443,1.065.662.177.109.392.207.369.46s-.236.373-.447.452-.452.1-.659.2a1.867,1.867,0,0,0-.386.315,2.545,2.545,0,0,0,.4.241,1.546,1.546,0,0,1,.807.551.413.413,0,0,1-.225.686.84.84,0,0,1-.124.037c-.75.156-.959.6-.862,1.37.047.372.134.739.167,1.112a2.368,2.368,0,0,1-.048.707.8.8,0,0,1-.758.661,1.928,1.928,0,0,1-.494-.017,15.657,15.657,0,0,0-4.785-.124,8.659,8.659,0,0,0-4.505,1.9c-.343.294-.641.641-.977.98a4.571,4.571,0,0,1-1.527-1.259,10.8,10.8,0,0,1-1.822-3.542,20.934,20.934,0,0,1-.882-3.879c-.007-.049-.019-.1-.033-.166-.024.027-.042.037-.045.051a11.237,11.237,0,0,0-.119,5.49,7.3,7.3,0,0,0,3.463,4.523,12.48,12.48,0,0,0,4.651,1.615c.8.122,1.617.187,2.4.275-.02.008-.079.037-.141.061a18.9,18.9,0,0,1-7.518,1.31,18.318,18.318,0,0,1-7.506-1.945,21.64,21.64,0,0,1-6.2-4.591,12.594,12.594,0,0,1-2.17-3.4,21.074,21.074,0,0,1-1.872-6.752,17.416,17.416,0,0,1,2.5-11.374,14.076,14.076,0,0,1,2.4-3,31.438,31.438,0,0,1,2.8-2.217,19.838,19.838,0,0,1,4.988-2.615,16.438,16.438,0,0,1,4.219-.9,20.635,20.635,0,0,1,7.919,1.131c.563.179,1.128.357,1.676.574a4.33,4.33,0,0,1,2.936,4.166,11.481,11.481,0,0,1-.631,3.828c-.219.71-.47,1.41-.68,2.123a5.544,5.544,0,0,0-.212,1.1,2.043,2.043,0,0,0,.106.76.389.389,0,0,0,.522.252l1.473-.348C-558.1,366.638-558.048,366.631-557.979,366.619Zm-13.112,20.31.017-.039-.2-.18a14.254,14.254,0,0,1-4.03-5.53,8.829,8.829,0,0,1-.544-4.635,10.239,10.239,0,0,1,1.951-4.484,67.227,67.227,0,0,1,4.526-5.417c1.261-1.4,2.514-2.809,3.731-4.247a9.519,9.519,0,0,0,1.768-2.961,3.53,3.53,0,0,0-.5-3.524,10.72,10.72,0,0,0-1.079-1.119,1.15,1.15,0,0,0-.425-.241,14.769,14.769,0,0,0-7.344-.6,16.392,16.392,0,0,0-9.735,5.065,17.633,17.633,0,0,0-3.587,5.675,18,18,0,0,0-1.1,6.173,7.611,7.611,0,0,0,.036,1.3,23.64,23.64,0,0,0,1.158,4.456,15.6,15.6,0,0,0,3.062,5.116,15.163,15.163,0,0,0,6.887,4.234,22.242,22.242,0,0,0,3.956.817C-572.063,386.842-571.576,386.881-571.091,386.929Z" fill="#fff"/>
      <path id="Path_1761" data-name="Path 1761" d="M-404.371,385.445a21.053,21.053,0,0,1,2.39,3.273,21.821,21.821,0,0,1,2.817,7.111,15.623,15.623,0,0,1-2.282,11.8A23.527,23.527,0,0,1-406.6,413.2a.09.09,0,0,1-.075.019c.041-.051.08-.1.123-.152a23.551,23.551,0,0,0,5.882-11.756,19.9,19.9,0,0,0-.818-10.02,25.666,25.666,0,0,0-2.762-5.647C-404.3,385.576-404.332,385.51-404.371,385.445Z" transform="translate(-152.502 -27.234)" fill="#fff"/>
      <path id="Path_1762" data-name="Path 1762" d="M-533.078,380.539v-2.9h4.2V373.43h2.85v4.2h4.215v2.894h-4.207v4.19h-2.847v-4.175Z" transform="translate(-46.361 -17.145)" fill="#fff"/>
    </g>
  </g>
</svg>
