<svg xmlns="http://www.w3.org/2000/svg" xmlns:xlink="http://www.w3.org/1999/xlink" width="97" height="97" viewBox="0 0 97 97">
  <defs>
    <filter id="Ellipse_1" x="0" y="0" width="97" height="97" filterUnits="userSpaceOnUse">
      <feOffset dy="1" input="SourceAlpha"/>
      <feGaussianBlur stdDeviation="7.5" result="blur"/>
      <feFlood flood-color="#afa3fc"/>
      <feComposite operator="in" in2="blur"/>
      <feComposite in="SourceGraphic"/>
    </filter>
    <linearGradient id="linear-gradient" x1="0.5" x2="0.5" y2="1" gradientUnits="objectBoundingBox">
      <stop offset="0" stop-color="#c7a3fe"/>
      <stop offset="1" stop-color="#7ba4f8"/>
    </linearGradient>
  </defs>
  <g id="Group_937" data-name="Group 937" transform="translate(6.5 -456.5)">
    <g transform="matrix(1, 0, 0, 1, -6.5, 456.5)" filter="url(#Ellipse_1)">
      <circle id="Ellipse_1-2" data-name="Ellipse 1" cx="26" cy="26" r="26" transform="translate(22.5 21.5)" fill="#afa3fc"/>
    </g>
    <circle id="Ellipse_12" data-name="Ellipse 12" cx="26" cy="26" r="26" transform="translate(16 478)" fill="url(#linear-gradient)"/>
    <g id="Group_160" data-name="Group 160" transform="translate(29.24 490.604)">
      <path id="Path_1771" data-name="Path 1771" d="M-695.169,344.748a.975.975,0,0,1,.677,1.077c-.024.413,0,.829,0,1.238.537.094.668.186.668.455s-.108.33-.668.454c0,.444,0,.895,0,1.345a.882.882,0,0,1-.981.974c-.25,0-.5.006-.749,0a.869.869,0,0,1-.888-.9c0-.192,0-.384,0-.593h-3.211c0,.208,0,.408,0,.608a.864.864,0,0,1-.847.882c-.3.013-.611.012-.915,0a.859.859,0,0,1-.853-.874c-.007-.48,0-.959,0-1.456-.314-.046-.687-.014-.665-.481.012-.256.145-.336.664-.408,0-.378.025-.764-.006-1.146a1.079,1.079,0,0,1,.623-1.174h1.332c.738.255.694.881.67,1.484h3.192c.1-1.192.107-1.2.688-1.484Zm-6,4.7V345.6h-.917v3.851Zm4.913-3.855v3.853h.913v-3.853Zm-.87,1.518h-3.177v.821h3.177Z" transform="translate(712.928 -344.748)" fill="#fff"/>
      <path id="Path_1772" data-name="Path 1772" d="M-598.223,427.04a1.264,1.264,0,0,1-1.385.851c-1.164-.031-2.329-.007-3.493-.009a1.1,1.1,0,0,1-1.224-1.238q0-1.8,0-3.6c0-.056,0-.111,0-.166a.422.422,0,0,1,.409-.436.416.416,0,0,1,.42.451c.005.721,0,1.442,0,2.162v.31h4.424c0-.09.013-.179.013-.268q0-2.481,0-4.963c0-.37-.05-.422-.412-.422q-1.816,0-3.633,0c-.33,0-.39.061-.393.386,0,.259,0,.518,0,.776a.42.42,0,0,1-.419.453.422.422,0,0,1-.41-.463c-.006-.3-.008-.61,0-.915a1.06,1.06,0,0,1,1.056-1.065q2-.017,3.993,0a1.129,1.129,0,0,1,1.051.837Zm-.849-.813h-4.421v.323c0,.477.023.5.5.5h3.188C-599.008,427.05-599,427.045-599.071,426.226Z" transform="translate(626.635 -409.176)" fill="#fff"/>
      <path id="Path_1773" data-name="Path 1773" d="M-696.651,414.206c.291,0,.5-.012.709,0a2.17,2.17,0,0,1,2.019,2.092c.02.674.015,1.35,0,2.024A1.159,1.159,0,0,1-695.1,419.5c-.887.012-1.775.006-2.663,0-.3,0-.487-.162-.486-.411s.182-.412.487-.418c.4-.007.794,0,1.231,0,0-.224,0-.433,0-.641.006-.293.18-.483.427-.475a.429.429,0,0,1,.4.472c.005.2,0,.4,0,.637.228,0,.438.015.645,0a.325.325,0,0,0,.308-.362c0-.684.017-1.369-.012-2.052a1.322,1.322,0,0,0-1.156-1.2,2.973,2.973,0,0,0-.36-.018q-2.524,0-5.049,0a1.383,1.383,0,0,0-1.546,1.536c0,.546,0,1.091,0,1.637,0,.356.111.464.461.471.155,0,.31,0,.495,0,0-.236-.005-.446,0-.656a.426.426,0,0,1,.415-.46.425.425,0,0,1,.414.46c.006.21,0,.42,0,.656.389,0,.747,0,1.106,0a1.3,1.3,0,0,1,.275.018.383.383,0,0,1,.333.414.371.371,0,0,1-.385.392c-.971.006-1.942.019-2.912-.011a1.113,1.113,0,0,1-1.026-1.062c-.02-.758-.033-1.518.008-2.273a2.165,2.165,0,0,1,1.909-1.933c.237-.023.476-.023.771-.036a3.246,3.246,0,0,1-.946-3.061,3.088,3.088,0,0,1,1.179-1.855,3.2,3.2,0,0,1,4.167.205,3.126,3.126,0,0,1,1.011,2.349A3.279,3.279,0,0,1-696.651,414.206Zm-2.159-4.781a2.384,2.384,0,0,0-2.385,2.375,2.387,2.387,0,0,0,2.371,2.39,2.388,2.388,0,0,0,2.4-2.39A2.384,2.384,0,0,0-698.809,409.425Z" transform="translate(713.018 -400.239)" fill="#fff"/>
      <path id="Path_1774" data-name="Path 1774" d="M-691.443,510.816a6.619,6.619,0,0,1,1.282-.547,2.167,2.167,0,0,1,2.484,2.778A5.268,5.268,0,0,1-689,515.229c-.452.485-.941.94-1.438,1.38a1.308,1.308,0,0,1-1.709.105,9.627,9.627,0,0,1-2.576-2.865,2.707,2.707,0,0,1-.391-1.778,2.1,2.1,0,0,1,1.4-1.714,2.122,2.122,0,0,1,2.181.383C-691.48,510.781-691.432,510.825-691.443,510.816Zm3.024,1.807a1.394,1.394,0,0,0-1.6-1.548,1.364,1.364,0,0,0-.954.69c-.174.294-.449.356-.665.16a1.06,1.06,0,0,1-.161-.222,1.36,1.36,0,0,0-1.561-.6,1.282,1.282,0,0,0-.931,1.373,3.29,3.29,0,0,0,.412,1.157A9.052,9.052,0,0,0-691.72,516a.51.51,0,0,0,.71.006,9.071,9.071,0,0,0,2.2-2.43A6.474,6.474,0,0,0-688.419,512.623Z" transform="translate(705.569 -488.564)" fill="#fff"/>
      <path id="Path_1775" data-name="Path 1775" d="M-774.848,423.423a5.29,5.29,0,0,1,2.355-4.242,1.252,1.252,0,0,1,1.547.019,6.616,6.616,0,0,1,.586.463c.264.234.293.471.1.668s-.412.165-.659-.055a4.605,4.605,0,0,0-.386-.315c-.382-.27-.5-.281-.866,0a4.344,4.344,0,0,0-1.781,2.87,4.2,4.2,0,0,0,1.8,4.069c.348.277.466.252.843-.008a4.2,4.2,0,0,0,1.519-4.984c-.13-.328-.067-.551.187-.653s.451.012.586.346a4.824,4.824,0,0,1-1.09,5.322,5.138,5.138,0,0,1-.887.745,1.224,1.224,0,0,1-1.5,0,5.337,5.337,0,0,1-2.243-3.281,4.855,4.855,0,0,1-.094-.574C-774.844,423.683-774.842,423.553-774.848,423.423Z" transform="translate(774.848 -409.219)" fill="#fff"/>
      <path id="Path_1776" data-name="Path 1776" d="M-742.293,382.325c-.427,0-.619-.311-.469-.606a4.882,4.882,0,0,1,.309-.492,11.667,11.667,0,0,1,3.26-3.237c.046-.031.091-.063.139-.091a.415.415,0,0,1,.589.1.42.42,0,0,1-.138.6c-.334.246-.683.474-1.006.734a10.9,10.9,0,0,0-2.372,2.686A1.6,1.6,0,0,1-742.293,382.325Z" transform="translate(747.004 -373.495)" fill="#fff"/>
      <path id="Path_1777" data-name="Path 1777" d="M-738.424,498.575c-.108.143-.171.31-.281.35a.558.558,0,0,1-.456-.027,17.979,17.979,0,0,1-1.988-1.624,23.537,23.537,0,0,1-1.667-2.1.371.371,0,0,1-.018-.508.612.612,0,0,1,.4-.161.445.445,0,0,1,.3.208,11.151,11.151,0,0,0,3.416,3.5A1.671,1.671,0,0,1-738.424,498.575Z" transform="translate(747.103 -474.918)" fill="#fff"/>
      <path id="Path_1778" data-name="Path 1778" d="M-622.854,498.865c-.116-.1-.281-.172-.326-.293a.668.668,0,0,1,.055-.432c.032-.081.149-.131.233-.187a10.877,10.877,0,0,0,3.223-3.305,1.258,1.258,0,0,1,.141-.2.391.391,0,0,1,.527-.07.378.378,0,0,1,.165.481.856.856,0,0,1-.088.171,11.708,11.708,0,0,1-3.566,3.659A3.588,3.588,0,0,1-622.854,498.865Z" transform="translate(643.037 -474.738)" fill="#fff"/>
      <path id="Path_1779" data-name="Path 1779" d="M-623.131,377.415a3.15,3.15,0,0,1,.356.165,11.605,11.605,0,0,1,3.609,3.69.43.43,0,0,1-.074.635.429.429,0,0,1-.628-.193,10.888,10.888,0,0,0-3.359-3.437c-.189-.123-.321-.289-.232-.5C-623.4,377.632-623.245,377.533-623.131,377.415Z" transform="translate(643.289 -373.142)" fill="#fff"/>
      <path id="Path_1780" data-name="Path 1780" d="M-756.482,438.561a.405.405,0,0,1,.419.393.311.311,0,0,0,.192.29.391.391,0,0,1,0,.7.286.286,0,0,0-.18.32c.008.119,0,.24,0,.36,0,.183-.017.334.212.443.269.128.222.509-.035.689a.453.453,0,0,0-.175.26c-.044.245-.172.4-.417.4s-.374-.152-.419-.4a.453.453,0,0,0-.173-.261.409.409,0,0,1,.006-.723.271.271,0,0,0,.17-.3,3.455,3.455,0,0,1,0-.415.346.346,0,0,0-.2-.392.387.387,0,0,1,.02-.682.311.311,0,0,0,.192-.29A.406.406,0,0,1-756.482,438.561Z" transform="translate(759.579 -426.288)" fill="#fff"/>
    </g>
  </g>
</svg>
