<svg xmlns="http://www.w3.org/2000/svg" xmlns:xlink="http://www.w3.org/1999/xlink" width="100" height="100" viewBox="0 0 100 100">
  <defs>
    <filter id="Ellipse_11" x="0" y="0" width="100" height="100" filterUnits="userSpaceOnUse">
      <feOffset dy="8" input="SourceAlpha"/>
      <feGaussianBlur stdDeviation="7.5" result="blur"/>
      <feFlood flood-color="#eec756"/>
      <feComposite operator="in" in2="blur"/>
      <feComposite in="SourceGraphic"/>
    </filter>
    <linearGradient id="linear-gradient" x1="0.5" y1="1" x2="0.5" gradientUnits="objectBoundingBox">
      <stop offset="0" stop-color="#e9b759"/>
      <stop offset="1" stop-color="#fbee50"/>
    </linearGradient>
  </defs>
  <g id="Group_938" data-name="Group 938" transform="translate(6.5 -576.5)">
    <g transform="matrix(1, 0, 0, 1, -6.5, 576.5)" filter="url(#Ellipse_11)">
      <circle id="Ellipse_11-2" data-name="Ellipse 11" cx="27.5" cy="27.5" r="27.5" transform="translate(22.5 14.5)" fill="#eec756" opacity="0.5"/>
    </g>
    <circle id="Ellipse_5" data-name="Ellipse 5" cx="27.5" cy="27.5" r="27.5" transform="translate(16 591)" fill="url(#linear-gradient)"/>
    <g id="Group_161" data-name="Group 161" transform="translate(29.86 605.704)">
      <path id="Path_1781" data-name="Path 1781" d="M-480.631,401.253q-1.492-7.719-2.985-15.44c-.109-.566-.3-.736-.881-.774-.372-.024-.746-.011-1.119-.014-.481,0-.494-.02-.565-.485a6.057,6.057,0,0,0-1.216-2.917,3.644,3.644,0,0,0-4.413-1.247,4.385,4.385,0,0,0-1.8,1.54c-.053.074-.095.25-.224.152a1.02,1.02,0,0,0-.708-.106c-.3,0-.436-.093-.48-.409a5.916,5.916,0,0,0-1.336-3.131,3.624,3.624,0,0,0-3.271-1.389,3.926,3.926,0,0,0-2.886,1.909,6.041,6.041,0,0,0-.95,2.621c-.038.289-.17.408-.461.4-.33-.015-.66,0-.991,0-.826.006-.979.131-1.133.931q-1.094,5.664-2.185,11.33c-.266,1.381-.541,2.76-.789,4.144a1.674,1.674,0,0,0,1.684,2.011h4.731c.746,0,1.492,0,2.238,0,.345,0,.391.065.334.406-.049.294-.106.587-.157.88a1.717,1.717,0,0,0,1.6,1.8c2.727-.064,5.455-.023,8.183-.024s5.476-.01,8.214.009a1.447,1.447,0,0,0,1.19-.551A1.833,1.833,0,0,0-480.631,401.253Zm-12.96-16.582a4.821,4.821,0,0,1,1.07-2.522,2.687,2.687,0,0,1,4.309.058,4.931,4.931,0,0,1,1.018,2.446c.043.29-.072.377-.347.375-.958-.009-1.915,0-2.873,0s-1.894,0-2.841,0C-493.514,385.029-493.631,384.947-493.591,384.67Zm-8.832-3.17a4.619,4.619,0,0,1,1.351-2.722,2.65,2.65,0,0,1,3.87.2,4.962,4.962,0,0,1,1.15,2.556c.054.338-.016.421-.369.423-.947.005-1.895,0-2.841,0-.926,0-1.852,0-2.778,0C-502.444,381.952-502.489,381.9-502.423,381.5Zm2.75,17.42a.454.454,0,0,1-.536.434c-2.365-.01-4.73,0-7.095-.005-.564,0-.8-.273-.711-.844.06-.389.143-.775.217-1.162q1.338-6.918,2.677-13.836c.1-.525.107-.527.645-.527h4.89q2.477,0,4.953,0c.421,0,.426.012.3.413a6.052,6.052,0,0,0-.285,1.276.342.342,0,0,1-.393.356c-.405,0-.811-.012-1.214.013-.645.04-.831.224-.953.856Q-498.426,392.407-499.673,398.92Zm18.018,3.107a.638.638,0,0,1-.625.4c-2.706-.011-5.411-.006-8.117-.006-2.674,0-5.347-.017-8.021.013a.7.7,0,0,1-.732-.9c.511-2.569,1-5.142,1.491-7.715q.7-3.623,1.395-7.246c.107-.554.013-.518.619-.518,3.537,0,7.073.005,10.61-.008.339,0,.454.111.515.429q1.429,7.466,2.877,14.93A.967.967,0,0,1-481.654,402.027Z" transform="translate(509.054 -377.008)" fill="#fff"/>
      <path id="Path_1782" data-name="Path 1782" d="M-384.446,480.461c-.451.475-.878.934-1.315,1.382-.312.32-.633.633-.965.933a.534.534,0,0,0-.186.537c.163.965.318,1.931.475,2.9.019.114.081.264-.012.334s-.213-.052-.31-.1c-.854-.46-1.706-.921-2.552-1.393a.484.484,0,0,0-.528,0c-.872.469-1.752.923-2.63,1.381-.083.043-.173.137-.261.086-.122-.072-.023-.2-.007-.289.168-1.007.34-2.013.528-3.017a.416.416,0,0,0-.135-.421q-1.077-1.07-2.142-2.152c-.063-.064-.188-.12-.143-.224s.166-.074.26-.087c.97-.132,1.939-.267,2.909-.4a.536.536,0,0,0,.457-.333c.423-.884.864-1.759,1.3-2.635.051-.1.075-.224.19-.289.116.063.138.186.187.289.42.873.84,1.746,1.248,2.625a.562.562,0,0,0,.491.373c.959.127,1.914.288,2.87.439A2.674,2.674,0,0,1-384.446,480.461Z" transform="translate(408.462 -464.624)" fill="#fff"/>
    </g>
  </g>
</svg>
